<svg width="25" height="24" viewBox="0 0 25 24" fill="none" xmlns="http://www.w3.org/2000/svg">
<g clip-path="url(#clip0_6002_2986)">
<path d="M12.0859 0C5.45875 0 0.0859375 5.37281 0.0859375 12C0.0859375 18.6272 5.45875 24 12.0859 24C18.7131 24 24.0859 18.6272 24.0859 12C24.0859 5.37281 18.7131 0 12.0859 0ZM20.417 12.8958C20.417 13.4723 20.3088 14.017 20.0903 14.5284C19.8723 15.0413 19.5737 15.4884 19.1945 15.8677C18.8153 16.2469 18.3686 16.545 17.8553 16.7634C17.3425 16.9814 16.7987 17.0902 16.2227 17.0902H8.21219C7.56531 17.0902 6.95828 16.9669 6.38828 16.7222C5.81922 16.4761 5.32094 16.1386 4.89203 15.7097C4.46312 15.2808 4.12562 14.7825 3.88047 14.2134C3.63437 13.6444 3.51109 13.0364 3.51109 12.3895V9.91734L6.5425 9.30797V7.88578H12.1244V10.7311H7.14953C6.82797 10.7311 6.56734 10.9917 6.56734 11.3133V12.1786C6.56734 12.5442 6.69766 12.8573 6.95828 13.117C7.21797 13.3777 7.52969 13.507 7.89531 13.507H16.7711C16.9394 13.507 17.0795 13.4475 17.1925 13.328C17.3045 13.2084 17.3608 13.072 17.3608 12.9173V8.49516L20.417 7.88578V12.8962V12.8958Z" fill="#07A67F"/>
</g>
<defs>
<clipPath id="clip0_6002_2986">
<rect width="24" height="24" fill="white" transform="translate(0.0859375)"/>
</clipPath>
</defs>
</svg>
